<?xml version="1.0" encoding="UTF-8" standalone="no"?>
<!DOCTYPE svg PUBLIC "-//W3C//DTD SVG 1.1//EN" "http://www.w3.org/Graphics/SVG/1.1/DTD/svg11.dtd">
<svg width="100%" height="100%" viewBox="0 0 124 33" version="1.1" xmlns="http://www.w3.org/2000/svg" xmlns:xlink="http://www.w3.org/1999/xlink" xml:space="preserve" xmlns:serif="http://www.serif.com/" style="fill-rule:evenodd;clip-rule:evenodd;stroke-linejoin:round;stroke-miterlimit:2;">
    <path d="M46.211,6.749L39.372,6.749C38.904,6.749 38.506,7.089 38.433,7.551L35.667,25.088C35.612,25.434 35.88,25.746 36.231,25.746L39.496,25.746C39.964,25.746 40.362,25.406 40.435,24.943L41.181,20.213C41.253,19.75 41.652,19.41 42.119,19.41L44.284,19.41C48.789,19.41 51.389,17.23 52.068,12.91C52.374,11.02 52.081,9.535 51.196,8.495C50.224,7.353 48.5,6.749 46.211,6.749ZM47,13.154C46.626,15.608 44.751,15.608 42.938,15.608L41.906,15.608L42.63,11.025C42.673,10.748 42.913,10.544 43.193,10.544L43.666,10.544C44.901,10.544 46.066,10.544 46.668,11.248C47.027,11.668 47.137,12.292 47,13.154Z" style="fill-rule:nonzero;"/>
    <path d="M66.654,13.075L63.379,13.075C63.1,13.075 62.859,13.279 62.816,13.556L62.671,14.472L62.442,14.14C61.733,13.111 60.152,12.767 58.574,12.767C54.955,12.767 51.864,15.508 51.262,19.353C50.949,21.271 51.394,23.105 52.482,24.384C53.48,25.56 54.908,26.05 56.607,26.05C59.523,26.05 61.14,24.175 61.14,24.175L60.994,25.085C60.939,25.433 61.207,25.745 61.556,25.745L64.506,25.745C64.975,25.745 65.371,25.405 65.445,24.942L67.215,13.733C67.271,13.388 67.004,13.075 66.654,13.075ZM62.089,19.449C61.773,21.32 60.288,22.576 58.394,22.576C57.443,22.576 56.683,22.271 56.195,21.693C55.711,21.119 55.527,20.302 55.681,19.392C55.976,17.537 57.486,16.24 59.351,16.24C60.281,16.24 61.037,16.549 61.535,17.132C62.034,17.721 62.232,18.543 62.089,19.449Z" style="fill-rule:nonzero;"/>
    <path d="M84.096,13.075L80.805,13.075C80.491,13.075 80.196,13.231 80.018,13.492L75.479,20.178L73.555,13.753C73.434,13.351 73.063,13.075 72.643,13.075L69.409,13.075C69.016,13.075 68.743,13.459 68.868,13.829L72.493,24.467L69.085,29.278C68.817,29.657 69.087,30.178 69.55,30.178L72.837,30.178C73.149,30.178 73.441,30.026 73.618,29.77L84.564,13.97C84.826,13.592 84.557,13.075 84.096,13.075Z" style="fill-rule:nonzero;"/>
    <path d="M94.992,6.749L88.152,6.749C87.685,6.749 87.287,7.089 87.214,7.551L84.448,25.088C84.393,25.434 84.661,25.746 85.01,25.746L88.52,25.746C88.846,25.746 89.125,25.508 89.176,25.184L89.961,20.213C90.033,19.75 90.432,19.41 90.899,19.41L93.063,19.41C97.569,19.41 100.168,17.23 100.848,12.91C101.155,11.02 100.86,9.535 99.975,8.495C99.004,7.353 97.281,6.749 94.992,6.749ZM95.781,13.154C95.408,15.608 93.533,15.608 91.719,15.608L90.688,15.608L91.413,11.025C91.456,10.748 91.694,10.544 91.975,10.544L92.448,10.544C93.682,10.544 94.848,10.544 95.45,11.248C95.809,11.668 95.918,12.292 95.781,13.154Z" style="fill-rule:nonzero;"/>
    <path d="M115.434,13.075L112.161,13.075C111.88,13.075 111.641,13.279 111.599,13.556L111.454,14.472L111.224,14.14C110.515,13.111 108.935,12.767 107.357,12.767C103.738,12.767 100.648,15.508 100.046,19.353C99.734,21.271 100.177,23.105 101.265,24.384C102.265,25.56 103.691,26.05 105.39,26.05C108.306,26.05 109.923,24.175 109.923,24.175L109.777,25.085C109.722,25.433 109.99,25.745 110.341,25.745L113.29,25.745C113.757,25.745 114.155,25.405 114.228,24.942L115.999,13.733C116.053,13.388 115.785,13.075 115.434,13.075ZM110.869,19.449C110.555,21.32 109.068,22.576 107.174,22.576C106.225,22.576 105.463,22.271 104.975,21.693C104.491,21.119 104.309,20.302 104.461,19.392C104.758,17.537 106.266,16.24 108.131,16.24C109.061,16.24 109.817,16.549 110.315,17.132C110.816,17.721 111.014,18.543 110.869,19.449Z" style="fill-rule:nonzero;"/>
    <path d="M119.295,7.23L116.488,25.088C116.433,25.434 116.701,25.746 117.05,25.746L119.872,25.746C120.341,25.746 120.739,25.406 120.811,24.943L123.579,7.407C123.634,7.061 123.366,6.748 123.017,6.748L119.857,6.748C119.578,6.749 119.338,6.953 119.295,7.23Z" style="fill-rule:nonzero;"/>
    <path d="M7.266,29.154L7.789,25.832L6.624,25.805L1.061,25.805L4.927,1.292C4.939,1.218 4.978,1.149 5.035,1.1C5.092,1.051 5.165,1.024 5.241,1.024L14.621,1.024C17.735,1.024 19.884,1.672 21.006,2.951C21.532,3.551 21.867,4.178 22.029,4.868C22.199,5.592 22.202,6.457 22.036,7.512L22.024,7.589L22.024,8.265L22.55,8.563C22.993,8.798 23.345,9.067 23.615,9.375C24.065,9.888 24.356,10.54 24.479,11.313C24.606,12.108 24.564,13.054 24.356,14.125C24.116,15.357 23.728,16.43 23.204,17.308C22.722,18.117 22.108,18.788 21.379,19.308C20.683,19.802 19.856,20.177 18.921,20.417C18.015,20.653 16.982,20.772 15.849,20.772L15.119,20.772C14.597,20.772 14.09,20.96 13.692,21.297C13.293,21.641 13.029,22.111 12.948,22.625L12.893,22.924L11.969,28.779L11.927,28.994C11.916,29.062 11.897,29.096 11.869,29.119C11.844,29.14 11.808,29.154 11.773,29.154L7.266,29.154Z" style="fill:rgb(37,59,128);fill-rule:nonzero;"/>
    <path d="M23.048,7.667C23.02,7.846 22.988,8.029 22.952,8.217C21.715,14.568 17.483,16.762 12.078,16.762L9.326,16.762C8.665,16.762 8.108,17.242 8.005,17.894L6.596,26.83L6.197,29.363C6.13,29.791 6.46,30.177 6.892,30.177L11.773,30.177C12.351,30.177 12.842,29.757 12.933,29.187L12.981,28.939L13.9,23.107L13.959,22.787C14.049,22.215 14.541,21.795 15.119,21.795L15.849,21.795C20.578,21.795 24.28,19.875 25.362,14.319C25.814,11.998 25.58,10.06 24.384,8.697C24.022,8.286 23.573,7.945 23.048,7.667Z" style="fill-rule:nonzero;stroke:white;stroke-width:1px;"/>
    <path d="M21.754,7.151C21.565,7.096 21.37,7.046 21.17,7.001C20.969,6.957 20.763,6.918 20.551,6.884C19.809,6.764 18.996,6.707 18.125,6.707L10.773,6.707C10.592,6.707 10.42,6.748 10.266,6.822C9.927,6.985 9.675,7.306 9.614,7.699L8.05,17.605L8.005,17.894C8.108,17.242 8.665,16.762 9.326,16.762L12.078,16.762C17.483,16.762 21.715,14.567 22.952,8.217C22.989,8.029 23.02,7.846 23.048,7.667C22.735,7.501 22.396,7.359 22.031,7.238C21.941,7.208 21.848,7.179 21.754,7.151Z" style="fill-rule:nonzero;"/>
    <path d="M9.614,7.699C9.675,7.306 9.927,6.985 10.266,6.823C10.421,6.749 10.592,6.708 10.773,6.708L18.125,6.708C18.996,6.708 19.809,6.765 20.551,6.885C20.763,6.919 20.969,6.958 21.17,7.002C21.37,7.047 21.565,7.097 21.754,7.152C21.848,7.18 21.941,7.209 22.032,7.238C22.397,7.359 22.736,7.502 23.049,7.667C23.417,5.32 23.046,3.722 21.777,2.275C20.378,0.682 17.853,0 14.622,0L5.242,0C4.582,0 4.019,0.48 3.917,1.133L0.01,25.898C-0.067,26.388 0.311,26.83 0.805,26.83L6.596,26.83L8.05,17.605L9.614,7.699Z" style="fill-rule:nonzero;"/>
</svg>
