<?xml version="1.0" encoding="UTF-8" standalone="no"?>
<!DOCTYPE svg PUBLIC "-//W3C//DTD SVG 1.1//EN" "http://www.w3.org/Graphics/SVG/1.1/DTD/svg11.dtd">
<svg width="100%" height="100%" viewBox="0 0 16 16" version="1.1" xmlns="http://www.w3.org/2000/svg" xmlns:xlink="http://www.w3.org/1999/xlink" xml:space="preserve" xmlns:serif="http://www.serif.com/" style="fill-rule:evenodd;clip-rule:evenodd;stroke-linejoin:round;stroke-miterlimit:2;">
    <path d="M12.854,0.146C12.66,-0.048 12.341,-0.048 12.147,0.146L10.5,1.793L14.207,5.5L15.854,3.854C15.948,3.76 16.001,3.633 16.001,3.5C16.001,3.367 15.948,3.24 15.854,3.146L12.854,0.146ZM13.5,6.207L9.793,2.5L3.293,9L3.5,9C3.774,9 4,9.226 4,9.5L4,10L4.5,10C4.774,10 5,10.226 5,10.5L5,11L5.5,11C5.774,11 6,11.226 6,11.5L6,12L6.5,12C6.774,12 7,12.226 7,12.5L7,12.707L13.5,6.207ZM6.032,13.675C6.011,13.619 6,13.56 6,13.5L6,13L5.5,13C5.226,13 5,12.774 5,12.5L5,12L4.5,12C4.226,12 4,11.774 4,11.5L4,11L3.5,11C3.226,11 3,10.774 3,10.5L3,10L2.5,10C2.44,10 2.381,9.989 2.325,9.968L2.146,10.146C2.098,10.194 2.061,10.251 2.036,10.314L0.036,15.314C0.012,15.373 0,15.436 0,15.5C0,15.774 0.226,16 0.5,16C0.564,16 0.627,15.988 0.686,15.964L5.686,13.964C5.749,13.939 5.806,13.902 5.854,13.854L6.032,13.676L6.032,13.675Z" style="fill:white;fill-rule:nonzero;"/>
</svg>
