<?xml version="1.0" encoding="UTF-8" standalone="no"?>
<!DOCTYPE svg PUBLIC "-//W3C//DTD SVG 1.1//EN" "http://www.w3.org/Graphics/SVG/1.1/DTD/svg11.dtd">
<svg width="100%" height="100%" viewBox="0 0 16 16" version="1.1" xmlns="http://www.w3.org/2000/svg" xmlns:xlink="http://www.w3.org/1999/xlink" xml:space="preserve" xmlns:serif="http://www.serif.com/" style="fill-rule:evenodd;clip-rule:evenodd;stroke-linejoin:round;stroke-miterlimit:2;">
    <path d="M5.026,15C11.064,15 14.367,9.997 14.367,5.666C14.367,5.526 14.367,5.384 14.361,5.244C15.004,4.778 15.559,4.202 16,3.542C15.399,3.807 14.763,3.981 14.111,4.06C14.797,3.65 15.312,3.004 15.558,2.243C14.913,2.625 14.207,2.893 13.471,3.036C12.85,2.375 11.982,1.999 11.076,1.999C9.273,1.999 7.79,3.483 7.79,5.285C7.79,5.536 7.818,5.786 7.875,6.03C5.237,5.898 2.775,4.65 1.108,2.601C0.244,4.093 0.693,6.024 2.126,6.983C1.606,6.965 1.096,6.826 0.64,6.575L0.64,6.62C0.642,8.176 1.748,9.528 3.272,9.838C2.99,9.916 2.699,9.954 2.407,9.953C2.201,9.954 1.995,9.935 1.793,9.896C2.222,11.229 3.459,12.148 4.86,12.173C3.697,13.087 2.259,13.582 0.78,13.58C0.519,13.581 0.259,13.566 0,13.535C1.501,14.492 3.245,15.001 5.026,15Z" style="fill:rgb(128,128,128);fill-rule:nonzero;"/>
</svg>
