<?xml version="1.0" encoding="UTF-8" standalone="no"?>
<!DOCTYPE svg PUBLIC "-//W3C//DTD SVG 1.1//EN" "http://www.w3.org/Graphics/SVG/1.1/DTD/svg11.dtd">
<svg width="100%" height="100%" viewBox="0 0 16 16" version="1.1" xmlns="http://www.w3.org/2000/svg" xmlns:xlink="http://www.w3.org/1999/xlink" xml:space="preserve" xmlns:serif="http://www.serif.com/" style="fill-rule:evenodd;clip-rule:evenodd;stroke-linejoin:round;stroke-miterlimit:2;">
    <path d="M8.051,1.999L8.14,1.999C8.962,2.002 13.127,2.032 14.25,2.334C14.94,2.521 15.48,3.063 15.665,3.754C15.766,4.134 15.837,4.637 15.885,5.156L15.895,5.26L15.917,5.52L15.925,5.624C15.99,6.538 15.998,7.394 15.999,7.581L15.999,7.656C15.998,7.85 15.989,8.764 15.917,9.716L15.909,9.821L15.9,9.925C15.85,10.497 15.776,11.065 15.665,11.483C15.481,12.174 14.94,12.716 14.25,12.903C13.09,13.215 8.681,13.237 8.07,13.238L7.928,13.238C7.619,13.238 6.341,13.232 5.001,13.186L4.831,13.18L4.744,13.176L4.402,13.162C3.292,13.113 2.235,13.034 1.748,12.902C1.058,12.715 0.518,12.174 0.333,11.483C0.222,11.066 0.148,10.497 0.098,9.925L0.09,9.82L0.082,9.716C0.033,9.038 0.005,8.359 0,7.68L0,7.557C0.002,7.342 0.01,6.599 0.064,5.779L0.071,5.676L0.074,5.624L0.082,5.52L0.104,5.26L0.114,5.156C0.162,4.637 0.233,4.133 0.334,3.754C0.518,3.063 1.059,2.521 1.749,2.334C2.236,2.204 3.293,2.124 4.403,2.074L4.573,2.067L4.831,2.058L5.002,2.051C5.954,2.02 6.906,2.003 7.858,2L8.051,2L8.051,1.999ZM6.4,5.209L6.4,10.027L10.557,7.619L6.4,5.209Z" style="fill:rgb(179,179,179);fill-rule:nonzero;"/>
</svg>
